<svg xmlns="http://www.w3.org/2000/svg" xmlns:xlink="http://www.w3.org/1999/xlink" version="1.1" x="0px" y="0px" viewBox="0 0 100 125" enable-background="new 0 0 100 100" xml:space="preserve"><g><path fill="none" d="M49.063,23.311c-0.842,7.277-5.627,14.182-9.895,20.341c-3.969,5.728-7.717,11.137-7.717,15.826   c0,10.227,8.32,18.547,18.548,18.547s18.548-8.32,18.548-18.547C68.548,43.898,53.911,28.112,49.063,23.311z M52.635,71.888   c7.539-2.032,12.021-9.818,9.99-17.357c-0.144-0.534,0.173-1.082,0.706-1.226c0.532-0.143,1.082,0.172,1.226,0.706   c2.317,8.604-2.798,17.491-11.402,19.809c-0.087,0.024-0.174,0.035-0.261,0.035c-0.44,0-0.845-0.294-0.965-0.74   C51.785,72.581,52.102,72.032,52.635,71.888z"/><path fill="none" d="M50,6.956C26.266,6.956,6.957,26.266,6.957,50c0,23.734,19.309,43.043,43.043,43.043   c23.734,0,43.044-19.309,43.044-43.043C93.044,26.266,73.734,6.956,50,6.956z M50,80.025c-11.33,0-20.548-9.217-20.548-20.547   c0-5.314,3.922-10.974,8.073-16.965c4.753-6.86,9.668-13.953,9.668-21.418c0-0.395,0.232-0.752,0.592-0.913   c0.36-0.162,0.782-0.094,1.076,0.168c0.221,0.198,5.475,4.936,10.812,12.125c4.961,6.682,10.874,16.791,10.874,27.002   C70.548,70.808,61.33,80.025,50,80.025z"/><path d="M50,5C25.187,5,5,25.187,5,50s20.187,45,45,45s45-20.187,45-45S74.813,5,50,5z M50,93.043   C26.266,93.043,6.957,73.734,6.957,50C6.957,26.266,26.266,6.956,50,6.956c23.734,0,43.044,19.309,43.044,43.044   C93.044,73.734,73.734,93.043,50,93.043z"/><path d="M48.861,20.35c-0.294-0.263-0.716-0.33-1.076-0.168c-0.359,0.161-0.592,0.519-0.592,0.913   c0,7.465-4.915,14.558-9.668,21.418c-4.151,5.992-8.073,11.651-8.073,16.965c0,11.33,9.218,20.547,20.548,20.547   s20.548-9.217,20.548-20.547c0-10.211-5.913-20.32-10.874-27.002C54.336,25.286,49.082,20.548,48.861,20.35z M50,78.025   c-10.228,0-18.548-8.32-18.548-18.547c0-4.689,3.748-10.099,7.717-15.826c4.268-6.159,9.053-13.064,9.895-20.341   c4.848,4.801,19.484,20.587,19.484,36.167C68.548,69.705,60.227,78.025,50,78.025z"/><path d="M52.893,73.854c0.087,0,0.174-0.011,0.261-0.035c8.604-2.318,13.72-11.204,11.402-19.809   c-0.144-0.533-0.693-0.849-1.226-0.706c-0.533,0.144-0.85,0.692-0.706,1.226c2.031,7.54-2.451,15.326-9.99,17.357   c-0.533,0.144-0.85,0.692-0.706,1.226C52.049,73.56,52.453,73.854,52.893,73.854z"/></g><text x="0" y="115" fill="#000000" font-size="5px" font-weight="bold" font-family="'Helvetica Neue', Helvetica, Arial-Unicode, Arial, Sans-serif">Created by Stan Diers</text><text x="0" y="120" fill="#000000" font-size="5px" font-weight="bold" font-family="'Helvetica Neue', Helvetica, Arial-Unicode, Arial, Sans-serif">from the Noun Project</text></svg>